<svg width="30" height="31" viewBox="0 0 30 31" fill="none" xmlns="http://www.w3.org/2000/svg">
<path d="M15 6.85066V4.35066M15 26.8507V24.3507M8.8125 9.41316L7.045 7.64566M22.955 23.5557L21.1875 21.7882M6.25 15.6007H3.75M26.25 15.6007H23.75M8.8125 21.7882L7.045 23.5557M22.955 7.64566L21.1875 9.41316M20 15.6007C20 16.9267 19.4732 18.1985 18.5355 19.1362C17.5979 20.0739 16.3261 20.6007 15 20.6007C13.6739 20.6007 12.4021 20.0739 11.4645 19.1362C10.5268 18.1985 10 16.9267 10 15.6007C10 14.2746 10.5268 13.0028 11.4645 12.0651C12.4021 11.1274 13.6739 10.6007 15 10.6007C16.3261 10.6007 17.5979 11.1274 18.5355 12.0651C19.4732 13.0028 20 14.2746 20 15.6007Z" stroke="#617DA6" stroke-width="2.91667" stroke-linecap="round" stroke-linejoin="round"/>
</svg>
