<svg width="30" height="31" viewBox="0 0 30 31" fill="none" xmlns="http://www.w3.org/2000/svg">
<path d="M7.5 3H18.75C19.413 3 20.0489 3.26339 20.5178 3.73223C20.9866 4.20107 21.25 4.83696 21.25 5.5V6.75C21.25 7.08152 21.1183 7.39946 20.8839 7.63388C20.6495 7.8683 20.3315 8 20 8C19.6685 8 19.3505 7.8683 19.1161 7.63388C18.8817 7.39946 18.75 7.08152 18.75 6.75V5.5H7.5V25.5H18.75V24.25C18.75 23.9185 18.8817 23.6005 19.1161 23.3661C19.3505 23.1317 19.6685 23 20 23C20.3315 23 20.6495 23.1317 20.8839 23.3661C21.1183 23.6005 21.25 23.9185 21.25 24.25V25.5C21.25 26.163 20.9866 26.7989 20.5178 27.2678C20.0489 27.7366 19.413 28 18.75 28H7.5C6.83696 28 6.20107 27.7366 5.73223 27.2678C5.26339 26.7989 5 26.163 5 25.5V5.5C5 4.83696 5.26339 4.20107 5.73223 3.73223C6.20107 3.26339 6.83696 3 7.5 3Z" fill="#617DA6"/>
<path d="M20.9937 20.8688C21.4812 21.3563 22.2688 21.3563 22.7563 20.8688L27.2412 16.3838C27.4756 16.1493 27.6072 15.8315 27.6072 15.5C27.6072 15.1685 27.4756 14.8507 27.2412 14.6163L22.7563 10.1313C22.5186 9.9165 22.2076 9.80125 21.8874 9.80933C21.5672 9.81741 21.2624 9.94821 21.0359 10.1747C20.8095 10.4012 20.6787 10.706 20.6706 11.0262C20.6625 11.3463 20.7777 11.6574 20.9925 11.895L23.3375 14.25H12.5C12.1685 14.25 11.8505 14.3817 11.6161 14.6161C11.3817 14.8505 11.25 15.1685 11.25 15.5C11.25 15.8315 11.3817 16.1495 11.6161 16.3839C11.8505 16.6183 12.1685 16.75 12.5 16.75H23.3375L20.9925 19.105C20.7595 19.3394 20.6288 19.6566 20.629 19.9871C20.6292 20.3177 20.7604 20.6347 20.9937 20.8688Z" fill="#617DA6"/>
</svg>
