<svg width="30" height="31" viewBox="0 0 30 31" fill="none" xmlns="http://www.w3.org/2000/svg">
<path fill-rule="evenodd" clip-rule="evenodd" d="M23.76 17.4525C24.495 17.265 25.83 17.2312 26.7725 18.3775C27.5075 19.2725 27.4625 20.2963 27.4212 20.7025C27.3237 21.6538 26.8713 22.615 26.3438 23.29C23.49 26.94 18.5987 28.5525 14.0375 27.9775C6.8575 27.0737 1.76875 20.5187 2.67375 13.3387C2.9525 11.1275 3.59875 9.145 4.79125 7.4625C5.9925 5.76625 7.63125 4.54125 9.62125 3.66875C10.3943 3.33838 11.2104 3.11953 12.045 3.01875C12.27 2.99625 12.545 2.98125 12.8425 3.00125C13.1037 3.01875 13.5762 3.07625 14.0712 3.32875C14.4439 3.51638 14.7683 3.78745 15.0192 4.1209C15.27 4.45434 15.4405 4.84115 15.5175 5.25125C15.6787 6.12625 15.3725 6.82125 15.1912 7.15375C14.9725 7.55375 14.6612 8.20125 14.3912 8.87375C14.1012 9.59375 13.9462 10.1313 13.9162 10.3825C13.6955 12.1342 14.1797 13.9019 15.2622 15.2967C16.3448 16.6915 17.937 17.5991 19.6887 17.82C19.98 17.8575 20.7212 17.845 21.6775 17.7575C22.6 17.67 23.4075 17.5413 23.76 17.4525ZM24.71 21.1962C25.04 20.4875 25.0862 19.695 24.375 19.875C23.9362 19.9875 23.2212 20.1025 22.4475 20.19L22.4162 20.1938C21.2975 20.3188 20.0637 20.3875 19.3762 20.3C16.9666 19.9965 14.7762 18.7482 13.287 16.8297C11.7977 14.9112 11.1315 12.4797 11.435 10.07C11.5025 9.53 11.7275 8.82 12.0012 8.11625L12.0862 7.90375C12.3875 7.1575 12.7337 6.4375 12.995 5.9575C13.2362 5.5175 12.79 5.43875 12.1925 5.52C11.4589 5.62999 10.7491 5.86239 10.0925 6.2075C7.1375 7.6775 5.61 10.0225 5.15375 13.65C4.97966 15.0316 5.0794 16.4339 5.44727 17.777C5.81515 19.12 6.44395 20.3775 7.29779 21.4775C8.15163 22.5775 9.21377 23.4986 10.4236 24.1881C11.6334 24.8777 12.9672 25.3222 14.3487 25.4962C17.81 25.9312 21.3662 24.8487 23.6637 22.55C23.9169 22.2981 24.1545 22.0309 24.375 21.75C24.5025 21.5875 24.6175 21.3962 24.71 21.1962Z" fill="#617DA6"/>
<path d="M18.6037 9.98126C18.6358 9.94748 18.6753 9.92171 18.7191 9.90599C18.763 9.89028 18.8099 9.88507 18.8561 9.89078C18.9023 9.8965 18.9465 9.91298 18.9852 9.93889C19.0238 9.96481 19.0559 9.99944 19.0787 10.04C19.0921 10.0667 19.11 10.09 19.1325 10.11C19.1657 10.1424 19.191 10.182 19.2063 10.2258C19.2216 10.2696 19.2266 10.3164 19.2207 10.3624C19.2149 10.4085 19.1985 10.4525 19.1728 10.4912C19.1471 10.5298 19.1127 10.5619 19.0725 10.585C19.0462 10.5986 19.0225 10.6168 19.0025 10.6388C18.9705 10.6725 18.931 10.6982 18.8872 10.7138C18.8434 10.7294 18.7966 10.7345 18.7504 10.7287C18.7043 10.7228 18.6602 10.7062 18.6217 10.6802C18.5832 10.6541 18.5513 10.6194 18.5287 10.5788C18.5151 10.5524 18.4969 10.5287 18.475 10.5088C18.4412 10.4768 18.4154 10.4374 18.3997 10.3937C18.384 10.3499 18.3788 10.3031 18.3845 10.257C18.3902 10.2109 18.4067 10.1668 18.4326 10.1282C18.4586 10.0896 18.4932 10.0577 18.5337 10.035C18.5601 10.0214 18.5838 10.0032 18.6037 9.98126Z" fill="#617DA6"/>
<path fill-rule="evenodd" clip-rule="evenodd" d="M19.5975 9.6925C19.6911 9.79136 19.7616 9.90973 19.804 10.0391C19.8463 10.1685 19.8595 10.3056 19.8425 10.4407C19.8256 10.5758 19.7789 10.7054 19.7058 10.8203C19.6327 10.9351 19.5351 11.0324 19.42 11.105C19.3211 11.1983 19.2027 11.2685 19.0734 11.3107C18.9441 11.3528 18.8071 11.3658 18.6722 11.3487C18.5373 11.3316 18.4078 11.2849 18.2931 11.2118C18.1784 11.1388 18.0813 11.0413 18.0087 10.9262C17.9154 10.8274 17.8451 10.7091 17.8028 10.5799C17.7606 10.4506 17.7475 10.3136 17.7645 10.1787C17.7814 10.0438 17.8281 9.91435 17.901 9.7996C17.9739 9.68484 18.0713 9.58765 18.1862 9.515C18.2851 9.42141 18.4035 9.3509 18.5329 9.30853C18.6622 9.26616 18.7994 9.25299 18.9344 9.26996C19.0695 9.28693 19.1991 9.33363 19.314 9.40669C19.4289 9.47975 19.5249 9.57736 19.5975 9.6925ZM18.9437 10.49C18.9777 10.4448 18.9992 10.3914 19.0062 10.3353C19.0133 10.2792 19.0055 10.2222 18.9837 10.17C18.9385 10.1361 18.8852 10.1145 18.8291 10.1075C18.7729 10.1005 18.716 10.1082 18.6637 10.13C18.6379 10.1645 18.6191 10.2039 18.6086 10.2457C18.5981 10.2876 18.596 10.3311 18.6025 10.3737C18.6067 10.3987 18.6137 10.4237 18.6237 10.4487C18.6689 10.4829 18.7221 10.5047 18.7783 10.5119C18.8344 10.5191 18.8914 10.5116 18.9437 10.49Z" fill="#617DA6"/>
<path d="M22.7938 6.72875C22.9313 6.58375 23.1688 6.61375 23.2663 6.78875C23.2813 6.81458 23.2996 6.83791 23.3213 6.85875C23.4663 6.99625 23.4363 7.23375 23.2613 7.3325C23.2349 7.34612 23.2112 7.36432 23.1913 7.38625C23.1593 7.41971 23.1198 7.4452 23.0762 7.46067C23.0325 7.47614 22.9858 7.48116 22.9399 7.47533C22.894 7.46949 22.85 7.45297 22.8116 7.42708C22.7732 7.40119 22.7414 7.36665 22.7188 7.32625C22.7048 7.29981 22.6861 7.2761 22.6638 7.25625C22.6303 7.22423 22.6048 7.18481 22.5893 7.14115C22.5739 7.0975 22.5689 7.05082 22.5747 7.00487C22.5805 6.95893 22.597 6.91499 22.6229 6.87659C22.6488 6.83818 22.6834 6.80638 22.7238 6.78375C22.7502 6.76975 22.7739 6.75112 22.7938 6.72875Z" fill="#617DA6"/>
<path fill-rule="evenodd" clip-rule="evenodd" d="M23.7875 6.44124C23.8808 6.54018 23.951 6.65854 23.9932 6.78783C24.0353 6.91713 24.0483 7.05415 24.0312 7.18906C24.0141 7.32397 23.9674 7.45342 23.8943 7.56813C23.8213 7.68283 23.7238 7.77994 23.6087 7.85249C23.5098 7.94556 23.3915 8.01561 23.2624 8.05761C23.1332 8.09962 22.9964 8.11254 22.8616 8.09546C22.7269 8.07838 22.5976 8.03171 22.483 7.9588C22.3684 7.8859 22.2713 7.78855 22.1988 7.67374C22.1054 7.57489 22.0351 7.4566 21.9928 7.32736C21.9506 7.19812 21.9375 7.06114 21.9545 6.92623C21.9714 6.79133 22.0181 6.66185 22.091 6.5471C22.1639 6.43234 22.2613 6.33515 22.3762 6.26249C22.4752 6.16919 22.5935 6.09896 22.7228 6.05682C22.8521 6.01468 22.9892 6.00169 23.1241 6.01878C23.259 6.03586 23.3884 6.08261 23.5031 6.15565C23.6178 6.22869 23.715 6.32622 23.7875 6.44124ZM23.1325 7.23749C23.1584 7.20296 23.1771 7.16363 23.1876 7.12178C23.1982 7.07993 23.2002 7.0364 23.1938 6.99374C23.1893 6.96807 23.1822 6.94294 23.1725 6.91874C23.1274 6.8846 23.0741 6.86284 23.018 6.8556C22.9619 6.84837 22.9048 6.85591 22.8525 6.87749C22.8186 6.92274 22.797 6.97606 22.79 7.03218C22.783 7.0883 22.7907 7.14529 22.8125 7.19749C22.8577 7.23143 22.9111 7.25297 22.9672 7.25998C23.0233 7.267 23.0803 7.25925 23.1325 7.23749Z" fill="#617DA6"/>
<path d="M23.2525 13.0862C23.2844 13.0525 23.3238 13.0267 23.3676 13.011C23.4113 12.9953 23.4581 12.99 23.5042 12.9958C23.5503 13.0015 23.5945 13.018 23.633 13.0439C23.6716 13.0698 23.7035 13.1045 23.7262 13.145C23.7404 13.1717 23.7583 13.1954 23.78 13.2162C23.925 13.3537 23.895 13.5912 23.7212 13.6887C23.6948 13.7027 23.6711 13.7214 23.6512 13.7437C23.6192 13.7775 23.5797 13.8032 23.5359 13.8188C23.4921 13.8344 23.4453 13.8395 23.3992 13.8337C23.353 13.8278 23.3089 13.8112 23.2704 13.7852C23.2319 13.7591 23.2001 13.7244 23.1775 13.6837C23.1635 13.6573 23.1449 13.6336 23.1225 13.6137C23.0888 13.5817 23.0631 13.5422 23.0474 13.4985C23.0318 13.4547 23.0267 13.4078 23.0326 13.3617C23.0384 13.3156 23.055 13.2715 23.0811 13.2329C23.1071 13.1944 23.1419 13.1626 23.1825 13.14C23.2088 13.1264 23.2325 13.1082 23.2525 13.0862Z" fill="#617DA6"/>
<path fill-rule="evenodd" clip-rule="evenodd" d="M24.2462 12.7975C24.3398 12.8964 24.4103 13.0147 24.4527 13.1441C24.4951 13.2735 24.5082 13.4106 24.4913 13.5457C24.4743 13.6808 24.4276 13.8104 24.3545 13.9253C24.2815 14.0401 24.1839 14.1374 24.0687 14.21C23.9698 14.3035 23.8513 14.374 23.7219 14.4162C23.5925 14.4585 23.4553 14.4716 23.3202 14.4545C23.1852 14.4374 23.0556 14.3905 22.9407 14.3174C22.8259 14.2442 22.7288 14.1465 22.6562 14.0312C22.5629 13.9323 22.4927 13.8139 22.4506 13.6847C22.4084 13.5554 22.3954 13.4183 22.4125 13.2834C22.4296 13.1485 22.4763 13.0191 22.5494 12.9044C22.6224 12.7897 22.72 12.6925 22.835 12.62C22.9338 12.5264 23.0522 12.4559 23.1816 12.4135C23.311 12.3712 23.4481 12.358 23.5832 12.375C23.7182 12.3919 23.8479 12.4386 23.9627 12.5117C24.0776 12.5847 24.1749 12.6824 24.2475 12.7975H24.2462ZM23.5912 13.595C23.6298 13.5431 23.652 13.4808 23.655 13.4162C23.6566 13.3682 23.649 13.3202 23.6325 13.275C23.5806 13.2364 23.5183 13.2142 23.4537 13.2112C23.4056 13.21 23.3576 13.2181 23.3125 13.235C23.2742 13.2866 23.252 13.3483 23.2487 13.4125C23.2469 13.461 23.2546 13.5094 23.2712 13.555C23.3233 13.5931 23.3855 13.6149 23.45 13.6175C23.4981 13.6191 23.546 13.6115 23.5912 13.595Z" fill="#617DA6"/>
</svg>
