<svg width="30" height="31" viewBox="0 0 30 31" fill="none" xmlns="http://www.w3.org/2000/svg">
<path d="M11.004 6.99667C11.004 5.93668 11.425 4.92012 12.1744 4.1706C12.9238 3.42108 13.9402 3 15 3C16.0598 3 17.0762 3.42108 17.8256 4.1706C18.575 4.92012 18.996 5.93668 18.996 6.99667C18.996 8.05665 18.575 9.07322 17.8256 9.82274C17.0762 10.5723 16.0598 10.9933 15 10.9933C13.9402 10.9933 12.9238 10.5723 12.1744 9.82274C11.425 9.07322 11.004 8.05665 11.004 6.99667ZM15 5.00033C14.7379 5.00033 14.4783 5.05197 14.2362 5.15229C13.994 5.25262 13.774 5.39967 13.5886 5.58505C13.4033 5.77042 13.2562 5.9905 13.1559 6.2327C13.0556 6.47491 13.004 6.7345 13.004 6.99667C13.004 7.25883 13.0556 7.51842 13.1559 7.76063C13.2562 8.00284 13.4033 8.22291 13.5886 8.40829C13.774 8.59366 13.994 8.74071 14.2362 8.84104C14.4783 8.94136 14.7379 8.993 15 8.993C15.5294 8.993 16.0371 8.78267 16.4114 8.40829C16.7857 8.0339 16.996 7.52613 16.996 6.99667C16.996 6.46721 16.7857 5.95943 16.4114 5.58505C16.0371 5.21066 15.5294 5.00033 15 5.00033ZM21 7.99683C21 7.6028 21.0776 7.21263 21.2284 6.84859C21.3791 6.48455 21.6001 6.15378 21.8787 5.87516C22.1573 5.59654 22.488 5.37552 22.8519 5.22473C23.2159 5.07394 23.606 4.99633 24 4.99633C24.394 4.99633 24.7841 5.07394 25.1481 5.22473C25.512 5.37552 25.8427 5.59654 26.1213 5.87516C26.3999 6.15378 26.6209 6.48455 26.7716 6.84859C26.9224 7.21263 27 7.6028 27 7.99683C27 8.79261 26.6839 9.5558 26.1213 10.1185C25.5587 10.6812 24.7956 10.9973 24 10.9973C23.2044 10.9973 22.4413 10.6812 21.8787 10.1185C21.3161 9.5558 21 8.79261 21 7.99683ZM24 6.99667C23.7348 6.99667 23.4804 7.10204 23.2929 7.28961C23.1054 7.47718 23 7.73157 23 7.99683C23 8.26209 23.1054 8.51649 23.2929 8.70406C23.4804 8.89162 23.7348 8.997 24 8.997C24.2652 8.997 24.5196 8.89162 24.7071 8.70406C24.8946 8.51649 25 8.26209 25 7.99683C25 7.73157 24.8946 7.47718 24.7071 7.28961C24.5196 7.10204 24.2652 6.99667 24 6.99667ZM6 4.99633C5.20435 4.99633 4.44129 5.31246 3.87868 5.87516C3.31607 6.43786 3 7.20105 3 7.99683C3 8.79261 3.31607 9.5558 3.87868 10.1185C4.44129 10.6812 5.20435 10.9973 6 10.9973C6.79565 10.9973 7.55871 10.6812 8.12132 10.1185C8.68393 9.5558 9 8.79261 9 7.99683C9 7.20105 8.68393 6.43786 8.12132 5.87516C7.55871 5.31246 6.79565 4.99633 6 4.99633ZM5 7.99683C5 7.73157 5.10536 7.47718 5.29289 7.28961C5.48043 7.10204 5.73478 6.99667 6 6.99667C6.26522 6.99667 6.51957 7.10204 6.70711 7.28961C6.89464 7.47718 7 7.73157 7 7.99683C7 8.26209 6.89464 8.51649 6.70711 8.70406C6.51957 8.89162 6.26522 8.997 6 8.997C5.73478 8.997 5.48043 8.89162 5.29289 8.70406C5.10536 8.51649 5 8.26209 5 7.99683ZM7.536 12.9977C7.18489 13.6058 7.00003 14.2957 7 14.998H3V19.9988C2.99984 20.4964 3.12339 20.9862 3.35953 21.4241C3.59568 21.862 3.937 22.2344 4.35278 22.5075C4.76855 22.7807 5.24573 22.9462 5.74135 22.9891C6.23697 23.032 6.73548 22.951 7.192 22.7533C7.34 23.4154 7.572 24.0475 7.872 24.6376C7.11293 24.9441 6.29022 25.0596 5.47611 24.9738C4.66201 24.888 3.88142 24.6036 3.20288 24.1456C2.52435 23.6876 1.96864 23.0699 1.58455 22.3469C1.20045 21.6239 0.999728 20.8176 1 19.9988V14.998C1 14.4675 1.21071 13.9587 1.58579 13.5836C1.96086 13.2084 2.46957 12.9977 3 12.9977H7.536ZM22.128 24.6376C22.8871 24.9441 23.7098 25.0596 24.5239 24.9738C25.338 24.888 26.1186 24.6036 26.7971 24.1456C27.4756 23.6876 28.0314 23.0699 28.4155 22.3469C28.7995 21.6239 29.0003 20.8176 29 19.9988V14.998C29 14.4675 28.7893 13.9587 28.4142 13.5836C28.0391 13.2084 27.5304 12.9977 27 12.9977H22.464C22.804 13.5858 23 14.2679 23 14.998H27V19.9988C27.0002 20.4964 26.8766 20.9862 26.6405 21.4241C26.4043 21.862 26.063 22.2344 25.6472 22.5075C25.2314 22.7807 24.7543 22.9462 24.2586 22.9891C23.763 23.032 23.2645 22.951 22.808 22.7533C22.656 23.4174 22.4293 24.0455 22.128 24.6376ZM11 12.9957C10.4696 12.9957 9.96086 13.2064 9.58579 13.5815C9.21071 13.9567 9 14.4655 9 14.996V20.999C9 22.5906 9.63214 24.1169 10.7574 25.2423C11.8826 26.3678 13.4087 27 15 27C16.5913 27 18.1174 26.3678 19.2426 25.2423C20.3679 24.1169 21 22.5906 21 20.999V14.998C21 14.4675 20.7893 13.9587 20.4142 13.5836C20.0391 13.2084 19.5304 12.9977 19 12.9977L11 12.9957ZM11 14.996H19V20.999C19 22.06 18.5786 23.0776 17.8284 23.8279C17.0783 24.5782 16.0609 24.9997 15 24.9997C13.9391 24.9997 12.9217 24.5782 12.1716 23.8279C11.4214 23.0776 11 22.06 11 20.999V14.996Z" fill="#617DA6"/>
</svg>
