<svg width="18" height="18" viewBox="0 0 18 18" fill="none" xmlns="http://www.w3.org/2000/svg">
<path d="M15 4.5C15.435 4.5 15.7875 4.65 16.065 4.9425C16.35 5.25 16.5 5.5875 16.5 6V14.25C16.5 14.6625 16.35 15 16.065 15.3075C15.7875 15.6 15.435 15.75 15 15.75H3C2.565 15.75 2.2125 15.6 1.935 15.3075C1.65 15 1.5 14.6625 1.5 14.25V6C1.5 5.5875 1.65 5.25 1.935 4.9425C2.2125 4.65 2.565 4.5 3 4.5H6V3C6 2.565 6.15 2.2125 6.435 1.935C6.7125 1.65 7.065 1.5 7.5 1.5H10.5C10.935 1.5 11.2875 1.65 11.565 1.935C11.85 2.2125 12 2.565 12 3V4.5H15ZM3 6V14.25H15V6H3ZM10.5 4.5V3H7.5V4.5H10.5Z" fill="#696969"/>
</svg>
