<svg width="18" height="18" viewBox="0 0 18 18" fill="none" xmlns="http://www.w3.org/2000/svg">
<path d="M2.76525 5.45474C2.69365 5.38707 2.60942 5.33418 2.51737 5.29906C2.42533 5.26395 2.32727 5.24731 2.22879 5.2501C2.13031 5.25289 2.03335 5.27504 1.94344 5.3153C1.85352 5.35556 1.77242 5.41313 1.70475 5.48474C1.63709 5.55634 1.58419 5.64057 1.54908 5.73262C1.51397 5.82466 1.49733 5.92272 1.50012 6.0212C1.5029 6.11968 1.52506 6.21664 1.56532 6.30656C1.60558 6.39647 1.66315 6.47757 1.73475 6.54524L8.48475 12.9202C8.62401 13.0519 8.80837 13.1252 9 13.1252C9.19164 13.1252 9.376 13.0519 9.51525 12.9202L16.266 6.54524C16.3392 6.47802 16.3983 6.39693 16.4398 6.30669C16.4814 6.21644 16.5046 6.11884 16.5081 6.01954C16.5117 5.92025 16.4954 5.82124 16.4604 5.72827C16.4253 5.6353 16.3721 5.55023 16.3039 5.47799C16.2357 5.40575 16.1538 5.34778 16.063 5.30746C15.9722 5.26713 15.8743 5.24525 15.775 5.24309C15.6756 5.24093 15.5768 5.25852 15.4844 5.29486C15.3919 5.33119 15.3076 5.38553 15.2363 5.45474L9 11.3437L2.76525 5.45474Z" fill="#1E1E1E"/>
</svg>
