<svg width="30" height="31" viewBox="0 0 30 31" fill="none" xmlns="http://www.w3.org/2000/svg">
<path d="M25.9336 13.5752L25.9277 13.5518L22.6406 5.19922C22.4941 4.72754 22.0576 4.40234 21.5625 4.40234H8.23826C7.74021 4.40234 7.29783 4.7334 7.1572 5.21094L4.08396 13.4785L4.07517 13.499L4.06931 13.5225C4.03123 13.666 4.01951 13.8125 4.04001 13.9561C4.03708 14.0029 4.03416 14.0498 4.03416 14.0967V24.8164C4.03493 25.2886 4.22285 25.7412 4.55673 26.0751C4.89061 26.409 5.34323 26.5969 5.81541 26.5977H24.1904C25.1719 26.5977 25.9717 25.7978 25.9746 24.8164V14.0967C25.9746 14.0586 25.9746 14.0205 25.9717 13.9883C25.9834 13.8447 25.9717 13.707 25.9336 13.5752ZM17.2676 12.3154L17.2588 12.7754C17.2353 14.0908 16.3271 14.9756 15 14.9756C14.3525 14.9756 13.7959 14.7676 13.3945 14.3721C12.9931 13.9766 12.7734 13.4258 12.7617 12.7754L12.7529 12.3154H6.72361L9.05271 6.65234H20.748L23.1416 12.3154H17.2676ZM6.28123 14.5654H10.8896C11.6015 16.2383 13.1162 17.2256 15.0029 17.2256C15.9902 17.2256 16.9072 16.9502 17.6484 16.4287C18.2988 15.9717 18.8056 15.333 19.1338 14.5654H23.7187V24.3477H6.28123V14.5654Z" fill="#617DA6"/>
</svg>
